<svg xmlns="http://www.w3.org/2000/svg" viewBox="0 0 469.58 493.1"><defs><style>.cls-1{fill:#010101;}.cls-2{fill:#fff;}</style></defs><title>logo-black</title><g id="Ebene_2" data-name="Ebene 2"><g id="Ebene_1-2" data-name="Ebene 1"><path class="cls-1" d="M385.37,312.65q0-45,0-90a30,30,0,0,1,3-2.21q36-20.79,71.93-41.52a6.91,6.91,0,0,1,3.92-1.09,32.23,32.23,0,0,1-1.4,3q-37.49,65-75,129.91C387.31,311.58,386.19,312,385.37,312.65Z"/><path class="cls-1" d="M385.4,428.72q0-45,0-90a11.89,11.89,0,0,1,2.74.76q37.71,21.72,75.38,43.51c.64.37,1.21.84,2.26,1.58-1.08.77-1.86,1.44-2.74,2q-36.54,21.13-73.09,42.24C388.4,429.61,386.92,430.69,385.4,428.72Z"/><path class="cls-1" d="M385.47,198.74q0-45-.07-89.95a9.59,9.59,0,0,1,3,.62Q426,131,463.56,152.76c.63.37,1.2.83,2.25,1.56-1.26.86-2.16,1.59-3.16,2.16q-36.11,20.88-72.23,41.71C388.88,199.08,387.35,200.66,385.47,198.74Z"/><path class="cls-1" d="M103,150.89V60.08c1.23.57,2.51,1.06,3.68,1.73q38.87,22.36,77.71,44.78c.07,1.49.21,3,.21,4.47q0,42.58,0,85.17c0,1.49-.11,3-.16,4.47-25.64-14.77-51.31-29.49-76.88-44.41C105.66,155.17,104.52,152.72,103,150.89Z"/><path class="cls-1" d="M102.94,265.54l0-90.16a36,36,0,0,1,4,1.72q37,21.33,74,42.72c1.29.74,2.65,1.37,4,2.05q0,45.26,0,90.53a15.93,15.93,0,0,1-.66,3.21c-7.91-4.47-15.84-8.9-23.71-13.43-14.7-8.44-29.36-16.95-44-25.41C111.43,273.78,105.77,271.39,102.94,265.54Z"/><path class="cls-1" d="M6.6,98.31l-.57-1L5.45,95.7l0,.06-.94-1.59-1-.75c-.07-1.24-.21-2.48-.21-3.71q0-41.85.05-83.69c0-1.13.78-2.26,1.21-3.39q24,14,48.07,28,16,9.29,32,18.5c0,11.93.15,23.87.15,35.81q0,29.09-.09,58.19l-74.55-42.9C9,99.55,7.81,99,6.6,98.31Z"/><path class="cls-1" d="M202.68,207.77V118.5a7.63,7.63,0,0,1,2.64.38q39,22.44,77.95,45a5.18,5.18,0,0,1,.82.74q0,43.62,0,87.22c0,1.62-.19,3.23-.29,4.84l-1,.67-49.21-28.21-27.84-16Z"/><path class="cls-1" d="M287.82,257.16l-1.25-.49c-.09-1.62-.25-3.23-.25-4.85q-.06-43.59-.08-87.2a1.65,1.65,0,0,0,.18-.57q38.71-22.32,77.45-44.59a16.55,16.55,0,0,1,3.92-1.09q0,44.46-.1,88.9c0,1.49-.08,3-.13,4.47-2.93,1.6-5.91,3.13-8.8,4.8q-34,19.59-67.93,39.21C289.87,256.3,288.82,256.69,287.82,257.16Z"/><path class="cls-1" d="M184.4,337c.07,1.49.2,3,.2,4.46q0,42.54,0,85.06c0,1.49-.12,3-.19,4.47Q148.19,410.07,112,389.2c-1.29-.74-2.63-1.37-4-2.05l-2.31-1.53L103,380.79q0-43.4.14-86.78c0-1.2.78-2.4,1.19-3.6q23.25,13.54,46.49,27.07Q167.57,327.25,184.4,337Z"/><path class="cls-1" d="M328.59,349.26l-1.39.82-3.83,2.2-5.22,3-5.22,3-3.81,2.18-5.22,3-5.21,3-3.82,2.18-1.38.82-3.84,2.2-4-.61q0-43.15.07-86.31c0-1.74.06-3.48.1-5.23q39.36-22.72,78.75-45.42c.86-.49,2.11-.33,3.18-.47q0,44.26-.11,88.53c0,1.59-.32,3.18-.49,4.77l-1.05.59-3.85,2.21-5.21,3-5.22,3L348.05,338l-1.38.82-3.84,2.2-5.22,3-5.21,3Z"/><path class="cls-1" d="M291.89,485.56l-1.38.82-4.81.07q0-45.79.08-91.59L349.48,358c5-2.88,9.91-5.78,14.91-8.57a16.45,16.45,0,0,1,3.38-1.07q0,46.57-.1,93.16l-3.14,2.15-1.38.82-3.84,2.2-5.22,3-3.81,2.18-1.37.82-3.85,2.2-1.38.82-3.83,2.2-5.22,3-3.82,2.18-1.37.82-3.84,2.2-1.38.82-3.84,2.2-5.22,3-3.81,2.18-1.38.82-3.84,2.2-5.21,3-5.22,3Z"/><path class="cls-2" d="M385.09,220.66a10.67,10.67,0,0,0-.82,2.81q-.06,43.77-.07,87.55c0,1.23-.71,2.45-1,3.69-.36,1.49-1.12,3.16-.73,4.45.22.71,3.14,1.49,3.65,1,1-.94,1.08-2.76,1.55-4.21a18.74,18.74,0,0,1,1.24-3.75q39.84-69,79.73-138a6,6,0,0,0,.23-1.73,16.63,16.63,0,0,0-2.28.87q-14.59,8.4-29.15,16.85Zm79-43.79.27.12-.26-.12a3.07,3.07,0,0,0-.25.26h0Zm.16.93a32.23,32.23,0,0,1-1.4,3q-37.49,65-75,129.91c-.48.83-1.6,1.28-2.42,1.9q0-45,0-90a30,30,0,0,1,3-2.21q36-20.79,71.93-41.52A6.91,6.91,0,0,1,464.22,177.8Z"/><path class="cls-2" d="M385.19,336.05a6.9,6.9,0,0,0-.91,2.3q-.06,45.25,0,90.51c-1.78,1.4-3.7,2.89-1.92,5.38,1.2,1.67,2.89,2.25,4.55.33l-.15-.22.18.19c.33-.59.66-1.19,1-1.79a15.53,15.53,0,0,1,2.62-2.46q38.31-22.18,76.66-44.29c.67-.39,1.26-.91,2.16-1.57-8.24-4.76-16.09-9.32-23.95-13.83Q415.3,353.3,385.19,336.05Zm80.58,48.48c-1.08.77-1.86,1.44-2.74,2q-36.54,21.13-73.09,42.24c-1.54.89-3,2-4.54,0,0,1.71,0,3.42-.08,5.12h0c0-1.7.06-3.41.08-5.12q0-45,0-90a11.89,11.89,0,0,1,2.74.76q37.71,21.72,75.38,43.51C464.15,383.32,464.72,383.79,465.77,384.53Z"/><path class="cls-2" d="M100.15,267.45c-.37,1.07-.72,2.54-.25,3.38s1.9,1.31,3,1.65c1.67.5,3.64.36,5.08,1.18,17,9.7,33.93,19.55,50.9,29.3,8.75,5,17.56,10,26.34,14.94l-.3-.81.3.81a17.16,17.16,0,0,0,.77-3.6q.25-46.18.36-92.37c0-.41-.65-.81-1-1.22L102.76,173c-.34.49-1,1-1,1.47q0,45.56.11,91.12C101.29,266.18,100.4,266.71,100.15,267.45ZM107,177.1q37,21.33,74,42.72c1.29.74,2.64,1.37,4,2.05h0q0,45.26,0,90.53a15.93,15.93,0,0,1-.66,3.21c-7.91-4.47-15.84-8.9-23.71-13.43-14.7-8.44-29.36-16.95-44-25.41-5.18-3-10.84-5.38-13.67-11.23l0-90.16A36,36,0,0,1,107,177.1Z"/><path class="cls-2" d="M86.83,50.82c0-1-.78-2-1.19-3l-.92,1.3c0,11.93.15,23.87.15,35.81q0,29.09-.09,58.19c0,.58,0,1.15,0,1.72,2.68,1.82,2.09-.29,2.09-1.73Q86.88,97,86.83,50.82Z"/><path class="cls-2" d="M10.23,100.23C9,99.55,7.81,99,6.6,98.31l-.57-1-.57-1.56,0,.05,0-.06h0l-.9-1.53-1-.75c-.08-1.24-.22-2.48-.22-3.71q0-41.85.05-83.69c0-1.13.78-2.26,1.21-3.39q24,14,48.07,28,16,9.29,32,18.5l.92-1.3Q57.82,31.76,30,15.72C21.59,10.89,13.12,6.16,4.68,1.39L2.43,0C2.14.49,2,.59,2,.7q0,44.72,0,89.43a17.36,17.36,0,0,1-1,4.15L.9,94.16.1,95l0,0c0,1,0,2.08,0,3.12l-.1.07,1.57,1.54.06-.1,2.45-.29a.28.28,0,0,0,.22-.42h0l.54.43.83,0c14.3,8.28,28.57,16.6,42.89,24.84C60.62,131.1,72.72,138,84.8,144.85c0-.57,0-1.14,0-1.72Z"/><path class="cls-2" d="M185.48,335.94c-9.46-5.54-18.89-11.12-28.39-16.59q-26.39-15.21-52.83-30.3l0,1.36q23.25,13.54,46.49,27.07,16.78,9.76,33.62,19.48c.07,1.49.2,3,.2,4.46q0,42.54,0,85.06c0,1.49-.12,3-.19,4.47h0Q148.19,410.07,112,389.2c-1.29-.74-2.63-1.37-4-2.05l-2.31-1.53L103,380.79q0-43.4.14-86.78c0-1.2.78-2.4,1.19-3.6l0-1.36-2.65-1.44c.08,1.57.17,2.43.17,3.28q0,43.92,0,87.84c0,1.22-.92,2.42-1.27,3.66s-1,2.62-.5,3.31c.6.88,2.11,1.26,3.3,1.61a28.89,28.89,0,0,0,3.87.61c11.67,6.83,23.32,13.72,35,20.48,14.31,8.26,28.67,16.42,43,24.62a1.38,1.38,0,0,0,.27.27.88.88,0,0,0,.33,0c.08-1.72.24-3.45.24-5.18q.23-45.61.37-91.24C186.38,336.58,185.79,336.26,185.48,335.94Z"/><path class="cls-2" d="M184.39,106.59c.07,1.49.21,3,.21,4.47q0,42.58,0,85.17c0,1.49-.11,3-.16,4.47h0c-25.65-14.77-51.31-29.49-76.88-44.41-1.91-1.12-3-3.57-4.56-5.4q0-45.4,0-90.81c1.23.57,2.51,1.06,3.68,1.73q38.87,22.36,77.71,44.78l.93-1.11c-8.5-4.93-17-9.9-25.5-14.8Q131.68,74.5,103.51,58.36a.42.42,0,0,0-.41-.3l-1.23.16,0,92.68a19.89,19.89,0,0,0-2.1,4.56c-.09.47,2.06,2.12,2.67,1.89,3-1.17,5,.85,7.16,2.08,6,3.36,11.86,6.83,17.8,10.23L185,202.75c-.12-.49-.24-1-.37-1.47.13.49.25,1,.37,1.47.44-.46,1.26-.91,1.26-1.37q.18-47.17.18-94.36c0-.51-.7-1-1.08-1.54Z"/><path class="cls-2" d="M366.92,231.25c-5.31,3-10.66,5.87-15.92,8.92q-32.79,19-65.54,38a6.35,6.35,0,0,0-.87,2.12q0,45.42.05,90.85a22.69,22.69,0,0,0-2.13,4.94c-.09.45,2.49,2.13,2.92,1.84,1.24-.81,2-2.35,2.93-3.6l-1.75.71h0l1.75-.71,2.32-1.75h0l3.08-1.84v-.9l-.27-.31-3.84,2.2-4-.61q0-43.15.07-86.31c0-1.74.06-3.48.1-5.23q39.36-22.72,78.75-45.42c.86-.49,2.11-.33,3.18-.47q0,44.26-.11,88.53c0,1.59-.32,3.18-.49,4.77l-1.05.59-3.85,2.21,1,.86,3.9-2.25h0l1.61-1.11q0-45.85,0-91.7a23.22,23.22,0,0,0,0-3.73C368.82,231.56,367.6,231.45,366.92,231.25ZM286.6,375.05h0c-2.61,0-1.78-1.74-1.78-3.07C284.82,373.31,284,375.05,286.6,375.05Z"/><path class="cls-2" d="M367.81,345.73c-1.84,1-3.7,2-5.52,3l-76.75,44.46.24,1.65L349.48,358c5-2.88,9.91-5.78,14.91-8.57a16.45,16.45,0,0,1,3.38-1.07q0,46.57-.1,93.16l.27,1.64c.33-.68.94-1.37.94-2.06q.06-46.83,0-93.67C368.87,346.83,368.18,346.28,367.81,345.73Z"/><path class="cls-2" d="M382.12,203.43c-.08.5,2.64,2.16,2.93,1.91a20.43,20.43,0,0,0,3.09-4l81.44-47c-5.32-3.09-9.81-5.72-14.31-8.31q-34.68-20-69.38-39.87c-3.36-1.3-1.59,1.54-1.59,2.28q-.14,45.18-.09,90.37C383.45,200.38,382.39,201.84,382.12,203.43Zm6.28-94Q426,131,463.56,152.76c.63.37,1.2.83,2.25,1.56-1.26.86-2.16,1.59-3.16,2.16q-36.11,20.88-72.23,41.71c-1.54.89-3.07,2.47-4.95.55q0-45-.07-89.95A9.59,9.59,0,0,1,388.4,109.41Z"/><path class="cls-2" d="M285.7,486.45h0l.08-91.59-.24-1.65c-.33.68-1,1.37-1,2.06q0,45.6.05,91.2a25.31,25.31,0,0,0-2.1,4.87c-.08.4,2.28,2,2.69,1.73,1.25-.79,2.09-2.22,3.09-3.4l2.46-2.08v-.91l-.25-.3Zm-.83.45c.17,1-1,2.91.35,3.08C283.91,489.81,285,487.89,284.87,486.9Z"/><path class="cls-2" d="M312.93,358.32l.59,1.06,5.68-3.26h0l5.2-3-1-.84-5.22,3Z"/><path class="cls-2" d="M298.69,366.54l-3.82,2.18h0l-1.38.82.27.31v.9L295,370a.59.59,0,0,0,.58-.26h0c1.25-.72,2.5-1.44,3.74-2.17l5.63-3.23h0l5.19-3-1-.86-5.22,3Z"/><path class="cls-2" d="M351.86,335.84,348.05,338l-1.38.82-3.84,2.2.58.48-.58-.48-5.22,3,.67.52-.67-.52-5.21,3-3.81,2.18-1.39.82-3.83,2.2,1,.84,3.07-1.83v0l1.23-.73a.63.63,0,0,0,.55-.25l3.75-2.17,5.66-3.25h0l5.2-3h0l3.08-1.84c0-.3,0-.6,0-.9,0,.3,0,.6,0,.9l1.23-.73h0a.63.63,0,0,0,.57-.26l3.74-2.17h0l5.64-3.24h0l5.2-3-1-.86-5.21,3Z"/><path class="cls-2" d="M359.31,446.64h0l-5.22,3-3.81,2.18.77,1,3.69-2.15,5.6-3.22h0l3.07-1.84v0l1.24-.73a.62.62,0,0,0,.56-.25c-.23-.35-.46-.7-.68-1.05l-1.38.82Z"/><path class="cls-2" d="M325.6,466.1l-1.38.82h0l-3.84,2.2-5.22,3-3.81,2.18-1.38.82-3.84,2.2-5.21,3h0l-5.22,3-3.81,2.18-1.38.82.25.3v.91l1.24-.73a.61.61,0,0,0,.54-.25l3.75-2.17,5.67-3.25h0l5.19-3h0l3.08-1.84v0l1.23-.73a.59.59,0,0,0,.57-.26c1.25-.72,2.5-1.44,3.74-2.17l5.65-3.24h0l3-1.82v0l1.25-.74a.63.63,0,0,0,.53-.24l3.46-2v-.9l-.27-.31Z"/><path class="cls-2" d="M339.85,457.88l1,.84,3.06-1.83V456l-.26-.3Z"/><path class="cls-2" d="M330.81,463.08l-1.37.82.27.31,1.23.17a.61.61,0,0,0,.59-.26l3.73-2.17h0l5.62-3.23-1-.84-5.22,3Z"/><path class="cls-2" d="M310.13,361.36l3.39-2-.59-1.06-3.81,2.18Z"/><path class="cls-2" d="M365.21,444.67l2.73-1.56-.27-1.64-3.14,2.15C364.75,444,365,444.32,365.21,444.67Z"/><path class="cls-2" d="M348.91,452.66h0l-3.85,2.2-1.38.82.26.3v.91l1.24-.73a.67.67,0,0,0,.55-.25l4.28-2.48h0l1-.57-.77-1Z"/><path class="cls-2" d="M329.71,465.11l1.23-.73-1.23-.17Z"/><path class="cls-2" d="M282.91,262.4h0l.92.55.1-.1-.1.1,2.63,0h0l1.58-1.44h0c.12-.35.24-.71.37-1.07,1-1.1,1.85-2.53,3.09-3.26q37.06-21.52,74.21-42.92a25.42,25.42,0,0,0,3-2.41,5,5,0,0,0,.12-.74q.06-47.13.07-94.25c0-.5-.63-1-1-1.51L286.3,162.49c0,.49,0,1,0,1.47l.08.09q38.71-22.32,77.45-44.59a16.55,16.55,0,0,1,3.92-1.09q0,44.46-.1,88.9c0,1.49-.08,3-.13,4.47h0c-2.93,1.6-5.91,3.13-8.8,4.8q-34,19.59-67.93,39.21c-1,.55-2,.94-3,1.41,0,1.09,0,2.17,0,3.26h0c0,.28,0,.55-.08.83l.14.14-.14-.14h0c0-.28.05-.55.08-.83,0-1.09,0-2.17,0-3.26l-1.25-.49a4.74,4.74,0,0,0-.65.16h0a4.74,4.74,0,0,1,.65-.16c-.09-1.62-.25-3.23-.25-4.85q-.06-43.59-.08-87.2a4.29,4.29,0,0,0-.6.13l.38-.92h0l-.38.92a4.29,4.29,0,0,1,.6-.13,1.65,1.65,0,0,0,.18-.57l-.08-.09-.32-.13h0l.32.13c0-.49,0-1,0-1.47a23.5,23.5,0,0,1-4.43-1.47q-39.8-22.82-79.51-45.72a12.06,12.06,0,0,0-.85,3.1q-.07,45.07-.06,90.15l-2.1,4.55,4.41,1.48a18.36,18.36,0,0,1,3.39,1.18q36.21,20.84,72.35,41.81c1,.59,1.63,1.9,2.44,2.87l.48-.08c.1-1,.21-2,.31-3l-49.21-28.21-27.84-16-3-5.4q0-44.64,0-89.27a7.63,7.63,0,0,1,2.64.38q39,22.44,77.95,45a5.18,5.18,0,0,1,.82.74q0,43.62,0,87.22c0,1.62-.19,3.23-.29,4.84l-1,.67c-.1,1-.21,2-.31,3l-.48.08.34,1.05h0ZM205,213.27h0l-2.76-.5Zm78.9,49.57.1-.1h0Zm2.4,0,.05.06Z"/></g></g></svg>